<?xml version="1.0" encoding="iso-8859-1"?>
<!-- Generator: Adobe Illustrator 19.0.0, SVG Export Plug-In . SVG Version: 6.00 Build 0)  -->
<svg xmlns="http://www.w3.org/2000/svg" xmlns:xlink="http://www.w3.org/1999/xlink" version="1.1" id="Capa_1" x="0px" y="0px" viewBox="0 0 512 512" style="enable-background:new 0 0 512 512;" xml:space="preserve">
<path style="fill:#C8C8B4;" d="M174.336,171.886c-4.57-3.265-10.595-4.077-15.655-1.64c-2.084,1.004-4.419,1.568-6.891,1.568  c-5.378,0-10.11-2.671-13.018-6.734c0,0-7.425,4.541-7.154,3.879c4.127-10.112-3.171-21.226-14.094-21.235  c-0.845,0-1.683-0.001-2.503-0.001c-5.961-0.002-10.895,3.913-13.218,9.403c-3.65,8.631-12.196,14.688-22.158,14.688  c-6.128,0-11.689-2.312-15.913-6.1c-4.531-4.062-11.2-4.659-16.632-1.916l-1.539,0.777c-9.243,4.668-11.571,17.315-3.981,24.359  c9.991,9.271,23.355,14.944,38.065,14.944c14.546,0,27.781-5.554,37.751-14.632c8.729,8.987,20.874,14.632,34.394,14.632  c7.163,0,13.952-1.571,20.052-4.385C182.976,194.358,184.315,179.014,174.336,171.886z"/>
<circle style="fill:#7DF5A5;" cx="151.79" cy="155.78" r="16.03"/>
<path style="fill:#F5DCB4;" d="M496.484,235.944H15.516c-4.427,0-8.016,3.589-8.016,8.016v32.065c0,4.427,3.589,8.016,8.016,8.016  h480.968c4.427,0,8.016-3.589,8.016-8.016V243.96C504.5,239.532,500.911,235.944,496.484,235.944z"/>
<path style="fill:#EBC9A0;" d="M7.5,276.024c0,4.427,3.589,8.016,8.016,8.016h480.968c4.427,0,8.016-3.589,8.016-8.016v-16.032H7.5  V276.024z"/>
<g>
	<circle style="fill:#FFDC64;" cx="103.69" cy="332.14" r="16.03"/>
	<path style="fill:#FFDC64;" d="M103.694,348.169L103.694,348.169c-8.854,0-16.032,7.178-16.032,16.032v40.081h32.065v-40.081   C119.726,355.347,112.548,348.169,103.694,348.169z"/>
</g>
<circle style="fill:#7DF5A5;" cx="79.64" cy="147.77" r="24.05"/>
<circle style="fill:#64508C;" cx="79.64" cy="147.77" r="8.02"/>
<path d="M496.484,228.46H111.105c-0.246-9.811-1.057-16.842-2.789-24.28c2.951-1.493,5.791-3.218,8.495-5.173  c9.867,8.022,22.072,12.389,34.98,12.389c30.656,0,55.597-24.941,55.597-55.597c0-4.143-3.358-7.5-7.5-7.5s-7.5,3.357-7.5,7.5  c0,22.385-18.211,40.597-40.597,40.597c-8.677,0-16.917-2.706-23.793-7.703c3.858-4.501,7.033-9.452,9.466-14.736  c4.143,3.296,9.238,5.09,14.612,5.09c6.286,0,12.195-2.448,16.64-6.893c4.445-4.444,6.893-10.354,6.893-16.64  s-2.448-12.195-6.893-16.64c-4.444-4.444-10.354-6.893-16.64-6.893c-3.58,0-7.036,0.796-10.171,2.301  c-1.162-5.58-3.069-10.946-5.666-15.985c4.902-2.031,10.188-3.096,15.552-3.096c4.142,0,7.5-3.358,7.5-7.5s-3.358-7.5-7.5-7.5  c-8.378,0-16.622,1.895-24.109,5.498c-0.98-1.126-1.989-2.235-3.055-3.301c-2.929-2.929-7.678-2.929-10.606,0  c-2.929,2.929-2.929,7.678,0,10.606c9.182,9.182,14.238,21.39,14.238,34.375s-5.057,25.193-14.238,34.375  s-21.389,14.238-34.375,14.238c-12.985,0-25.192-5.057-34.375-14.238c-9.182-9.182-14.238-21.39-14.238-34.375  s5.057-25.193,14.238-34.375c2.929-2.929,2.929-7.678,0-10.606c-2.929-2.929-7.678-2.929-10.606,0  c-12.015,12.015-18.632,27.989-18.632,44.981s6.617,32.966,18.632,44.981s27.99,18.632,44.981,18.632  c4.928,0,9.765-0.573,14.45-1.657c1.571,7.424,2.098,14.703,2.098,26.625v40.597H15.516c-0.285,0-0.516-0.231-0.516-0.517v-32.064  c0-0.284,0.231-0.516,0.516-0.516H71.63c4.142,0,7.5-3.358,7.5-7.5c0-4.143-3.358-7.5-7.5-7.5H15.516  C6.96,228.46,0,235.42,0,243.976v32.064c0,8.556,6.96,15.517,15.516,15.517h80.677v18.297c-9.308,3.139-16.032,11.946-16.032,22.3  c0,6.19,2.407,11.827,6.328,16.032c-3.922,4.206-6.328,9.842-6.328,16.032v40.081c0,4.142,3.358,7.5,7.5,7.5h32.064  c4.142,0,7.5-3.358,7.5-7.5v-40.081c0-6.19-2.407-11.827-6.328-16.032c3.922-4.206,6.328-9.842,6.328-16.032  c0-10.354-6.724-19.161-16.032-22.3v-18.297h385.291c8.556,0,15.516-6.961,15.516-15.517v-32.064  C512,235.42,505.04,228.46,496.484,228.46z M146.042,149.48c1.612-1.611,3.754-2.499,6.033-2.499s4.421,0.888,6.033,2.499  c1.612,1.612,2.499,3.754,2.499,6.033s-0.887,4.421-2.499,6.033l0,0c-1.612,1.611-3.754,2.499-6.033,2.499s-4.421-0.888-6.033-2.499  c-1.612-1.612-2.499-3.754-2.499-6.033S144.43,151.092,146.042,149.48z M112.226,396.798H95.161v-32.581  c0-4.705,3.828-8.532,8.532-8.532s8.532,3.828,8.532,8.532L112.226,396.798L112.226,396.798z M103.693,340.686  c-4.705,0-8.532-3.828-8.532-8.532c0-4.705,3.828-8.532,8.532-8.532s8.532,3.827,8.532,8.532  C112.226,336.858,108.398,340.686,103.693,340.686z M497,276.04c0,0.285-0.231,0.517-0.516,0.517H111.193V243.46h385.291  c0.285,0,0.516,0.231,0.516,0.516L497,276.04L497,276.04z"/>
<path d="M464.419,252.508c-4.142,0-7.5,3.358-7.5,7.5c0,4.143,3.358,7.5,7.5,7.5h0.08c4.142,0,7.46-3.357,7.46-7.5  C471.959,255.866,468.562,252.508,464.419,252.508z"/>
<path d="M400.291,252.508c-4.142,0-7.5,3.358-7.5,7.5c0,4.143,3.358,7.5,7.5,7.5h0.08c4.142,0,7.46-3.357,7.46-7.5  C407.831,255.866,404.433,252.508,400.291,252.508z"/>
<path d="M336.161,252.508c-4.142,0-7.5,3.358-7.5,7.5c0,4.143,3.358,7.5,7.5,7.5h0.08c4.142,0,7.46-3.357,7.46-7.5  C343.701,255.866,340.303,252.508,336.161,252.508z"/>
<path d="M432.275,252.508c-4.142,0-7.5,3.358-7.5,7.5c0,4.143,3.358,7.5,7.5,7.5h0.08c4.142,0,7.46-3.357,7.46-7.5  C439.815,255.866,436.417,252.508,432.275,252.508z"/>
<path d="M368.146,252.508c-4.142,0-7.5,3.358-7.5,7.5c0,4.143,3.358,7.5,7.5,7.5h0.08c4.142,0,7.46-3.357,7.46-7.5  C375.686,255.866,372.288,252.508,368.146,252.508z"/>
<path d="M40.081,260.008c0,4.143,3.358,7.5,7.5,7.5h0.08c4.142,0,7.46-3.357,7.46-7.5c0-4.142-3.398-7.5-7.54-7.5  S40.081,255.866,40.081,260.008z"/>
<path d="M79.645,178.928c17.396,0,31.548-14.152,31.548-31.548c0-4.142-3.358-7.5-7.5-7.5s-7.5,3.358-7.5,7.5  c0,9.125-7.423,16.548-16.548,16.548s-16.548-7.424-16.548-16.548s7.423-16.548,16.548-16.548c4.142,0,7.5-3.358,7.5-7.5  s-3.358-7.5-7.5-7.5c-17.396,0-31.548,14.152-31.548,31.548S62.249,178.928,79.645,178.928z"/>
<g>
</g>
<g>
</g>
<g>
</g>
<g>
</g>
<g>
</g>
<g>
</g>
<g>
</g>
<g>
</g>
<g>
</g>
<g>
</g>
<g>
</g>
<g>
</g>
<g>
</g>
<g>
</g>
<g>
</g>
</svg>
