<?xml version="1.0" encoding="utf-8"?>
<!-- Generator: Adobe Illustrator 24.0.0, SVG Export Plug-In . SVG Version: 6.00 Build 0)  -->
<svg version="1.1" xmlns="http://www.w3.org/2000/svg" xmlns:xlink="http://www.w3.org/1999/xlink" x="0px" y="0px"
	 viewBox="0 0 256 256" style="enable-background:new 0 0 256 256;" xml:space="preserve">
<style type="text/css">
	.st0{fill:#F98FA6;}
	.st1{fill:#FC657E;}
	.st2{fill:#DAE6F1;}
	.st3{fill:#5290DB;}
	.st4{fill:#FCDD86;}
	.st5{fill:#F5C84C;}
	.st6{fill:#87D147;}
	.st7{fill:#70D6F9;}
	.st8{fill:#EDF4FC;}
	.st9{fill:#9BE5F9;}
	.st10{fill:#B2E26D;}
	.st11{fill:#F9C1A8;}
	.st12{fill:#414344;}
	.st13{fill:#E1FBFF;}
	.st14{fill:#FFE3EC;}
	.st15{fill:#FCBECF;}
	.st16{fill:#EF4460;}
	.st17{fill:#80C2F9;}
	.st18{fill:#3A70BF;}
	.st19{fill:#FCA265;}
	.st20{fill:#5B5D60;}
	.st21{fill:#818182;}
	.st22{fill:#C7D7E5;}
	.st23{fill:#F9D0B4;}
	.st24{fill:#AA6F59;}
	.st25{fill:#D1856D;}
	.st26{fill:#FCC29A;}
	.st27{fill:#29589F;}
	.st28{fill:#F7B386;}
	.st29{fill:#FC8C48;}
	.st30{fill:#FFF0CC;}
	.st31{fill:#57AF12;}
	.st32{fill:#3CAADC;}
	.st33{fill:#EDB311;}
	.st34{fill:#231F20;}
</style>
<g id="Layer_1">
</g>
<g id="Layer_2">
</g>
<g id="Layer_3">
</g>
<g id="Layer_4">
</g>
<g id="Layer_5">
</g>
<g id="Layer_6">
</g>
<g id="Layer_7">
</g>
<g id="Layer_8">
</g>
<g id="Layer_9">
</g>
<g id="Layer_10">
</g>
<g id="Layer_11">
</g>
<g id="Layer_12">
</g>
<g id="Layer_13">
</g>
<g id="Layer_14">
</g>
<g id="Layer_15">
</g>
<g id="Layer_16">
</g>
<g id="Layer_17">
</g>
<g id="Layer_18">
</g>
<g id="Layer_19">
</g>
<g id="Layer_20">
</g>
<g id="Layer_21">
</g>
<g id="Layer_22">
</g>
<g id="Layer_23">
</g>
<g id="Layer_24">
</g>
<g id="Layer_25">
</g>
<g id="Layer_26">
</g>
<g id="Layer_27">
</g>
<g id="Layer_28">
</g>
<g id="Layer_29">
</g>
<g id="Layer_30">
</g>
<g id="Layer_31">
</g>
<g id="Layer_32">
</g>
<g id="Layer_33">
</g>
<g id="Layer_34">
</g>
<g id="Layer_35">
</g>
<g id="Layer_36">
</g>
<g id="Layer_37">
</g>
<g id="Layer_38">
</g>
<g id="Layer_39">
</g>
<g id="Layer_40">
</g>
<g id="Layer_41">
</g>
<g id="Layer_42">
</g>
<g id="Layer_43">
</g>
<g id="Layer_44">
</g>
<g id="Layer_45">
</g>
<g id="Layer_46">
</g>
<g id="Layer_47">
</g>
<g id="Layer_48">
</g>
<g id="Layer_49">
</g>
<g id="Layer_50">
</g>
<g id="Layer_51">
</g>
<g id="Layer_52">
</g>
<g id="Layer_53">
</g>
<g id="Layer_54">
</g>
<g id="Layer_55">
</g>
<g id="Layer_56">
</g>
<g id="Layer_57">
</g>
<g id="Layer_58">
</g>
<g id="Layer_59">
</g>
<g id="Layer_60">
</g>
<g id="Layer_61">
</g>
<g id="Layer_62">
</g>
<g id="Layer_63">
</g>
<g id="Layer_64">
</g>
<g id="Layer_65">
</g>
<g id="Layer_66">
</g>
<g id="Layer_67">
</g>
<g id="Layer_68">
</g>
<g id="Layer_69">
</g>
<g id="Layer_70">
</g>
<g id="Layer_71">
</g>
<g id="Layer_72">
</g>
<g id="Layer_73">
</g>
<g id="Layer_74">
</g>
<g id="Layer_75">
</g>
<g id="Layer_76">
</g>
<g id="Layer_77">
</g>
<g id="Layer_78">
</g>
<g id="Layer_79">
</g>
<g id="Layer_80">
</g>
<g id="Layer_81">
</g>
<g id="Layer_82">
</g>
<g id="Layer_83">
</g>
<g id="Layer_84">
</g>
<g id="Layer_85">
	<g>
		<g>
			<g>
				<path class="st5" d="M195.736,121.675c-4.292,0-7.772,3.479-7.772,7.772c0,4.292,3.479,7.771,7.772,7.771
					s7.772-3.479,7.772-7.771C203.508,125.155,200.028,121.675,195.736,121.675z"/>
			</g>
		</g>
		<g>
			<g>
				<path class="st5" d="M207.818,79.823c-2.824,0-5.114,2.29-5.114,5.114s2.29,5.114,5.114,5.114c2.824,0,5.114-2.29,5.114-5.114
					S210.642,79.823,207.818,79.823z"/>
			</g>
		</g>
		<g>
			<g>
				<path class="st5" d="M225.475,76.105c-2.824,0-5.114,2.29-5.114,5.114c0,2.825,2.29,5.114,5.114,5.114
					c2.824,0,5.114-2.289,5.114-5.114C230.588,78.395,228.299,76.105,225.475,76.105z"/>
			</g>
		</g>
		<g>
			<g>
				<path class="st1" d="M49.356,151.882c-4.498-0.837-8.042-4.31-8.898-8.716c-0.043-0.221-0.352-0.221-0.395,0
					c-0.855,4.406-4.4,7.879-8.898,8.716c-0.226,0.042-0.226,0.345,0,0.387c4.498,0.838,8.042,4.311,8.898,8.717
					c0.043,0.221,0.352,0.221,0.395,0c0.855-4.406,4.4-7.879,8.898-8.717C49.582,152.227,49.582,151.924,49.356,151.882z"/>
			</g>
		</g>
		<g>
			<g>
				<path class="st5" d="M54.41,50.944c-3.062-0.57-5.475-2.935-6.057-5.934c-0.029-0.15-0.24-0.15-0.269,0
					c-0.582,3-2.995,5.364-6.057,5.934c-0.154,0.028-0.154,0.234,0,0.263c3.062,0.57,5.475,2.934,6.057,5.934
					c0.029,0.151,0.24,0.151,0.269,0c0.582-3,2.995-5.363,6.057-5.934C54.564,51.179,54.564,50.973,54.41,50.944z"/>
			</g>
		</g>
		<g>
			<g>
				<path class="st7" d="M207.754,38.302h-2.329v-2.33c0-1.744-1.413-3.157-3.157-3.157s-3.157,1.413-3.157,3.157v2.33h-2.33
					c-1.744,0-3.157,1.414-3.157,3.158c0,1.744,1.413,3.157,3.157,3.157h2.33v2.33c0,1.744,1.413,3.158,3.157,3.158
					s3.157-1.414,3.157-3.158v-2.33h2.329c1.744,0,3.157-1.414,3.157-3.157C210.912,39.715,209.498,38.302,207.754,38.302z"/>
			</g>
		</g>
		<g>
			<g>
				<path class="st6" d="M26.289,177c-1.865,0-3.377,1.512-3.377,3.377c0,1.865,1.512,3.377,3.377,3.377s3.377-1.512,3.377-3.377
					C29.666,178.512,28.154,177,26.289,177z"/>
			</g>
		</g>
		<g>
			<g>
				<path class="st1" d="M190.289,15c-1.865,0-3.377,1.512-3.377,3.377c0,1.865,1.512,3.377,3.377,3.377s3.377-1.512,3.377-3.377
					C193.666,16.512,192.154,15,190.289,15z"/>
			</g>
		</g>
		<g>
			<g>
				<path class="st2" d="M181.359,52.973c0-27.83-22.641-50.471-50.47-50.471h-13.986c-27.829,0-50.47,22.641-50.47,50.471v15.011
					c1.205-0.578,2.475-1.043,3.799-1.374c0,0,0,0.001,0,0.001c0.835-2.833,3.461-4.917,6.554-4.917h0.558
					c3.759,0,6.834,3.076,6.834,6.834v-0.101c0.001-1.351,1.269-2.347,2.591-2.07c7.274,1.522,28.908,4.125,43.573-14.317
					c0.803-1.011,2.292-1.106,3.214-0.202c3.377,3.31,12.166,9.92,28.846,10.41c1.138,0.033,2.05,0.972,2.073,2.111
					c0.004,0.208,0.007,0.418,0.007,0.628v3.542c0-3.759,3.075-6.834,6.834-6.834h0.558c3.093,0,5.719,2.084,6.554,4.917l0-0.001
					c1.012,0.253,1.989,0.591,2.934,0.991V52.973z"/>
			</g>
		</g>
		<g>
			<g>
				<path class="st0" d="M171.871,61.694h-0.558c-3.759,0-6.834,3.076-6.834,6.834v35.108c0,3.759,3.075,6.834,6.834,6.834h0.558
					c3.759,0,6.834-3.076,6.834-6.834V68.529C178.706,64.77,175.63,61.694,171.871,61.694z"/>
			</g>
		</g>
		<g>
			<g>
				<path class="st1" d="M187.771,71.927c-2.534-2.549-5.748-4.417-9.346-5.317c0.18,0.609,0.281,1.253,0.281,1.919v35.108
					c0,0.659-0.099,1.296-0.276,1.9c3.468-0.872,6.587-2.623,9.074-5.035c1.819-1.763,2.834-4.198,2.834-6.732V78.379
					C190.338,75.979,189.463,73.629,187.771,71.927z"/>
			</g>
		</g>
		<g>
			<g>
				<path class="st0" d="M77.342,61.694h-0.558c-3.759,0-6.834,3.076-6.834,6.834v35.108c0,3.759,3.075,6.834,6.834,6.834h0.558
					c3.759,0,6.834-3.076,6.834-6.834V68.529C84.177,64.77,81.101,61.694,77.342,61.694z"/>
			</g>
		</g>
		<g>
			<g>
				<path class="st1" d="M69.95,68.529c0-0.667,0.101-1.31,0.281-1.919c-3.598,0.901-6.813,2.769-9.346,5.317
					c-1.692,1.702-2.567,4.053-2.567,6.453v15.392c0,2.534,1.015,4.969,2.834,6.732c2.488,2.412,5.606,4.163,9.074,5.035
					c-0.176-0.604-0.276-1.241-0.276-1.9V68.529z"/>
			</g>
		</g>
		<g>
			<g>
				<path class="st12" d="M130.889,14.696h-13.986c-21.106,0-38.276,17.171-38.276,38.277v8.848c3.15,0.605,5.55,3.389,5.55,6.708
					v-0.101c0.001-1.351,1.269-2.347,2.591-2.07c7.274,1.522,28.908,4.125,43.573-14.317c0.803-1.011,2.292-1.106,3.214-0.202
					c3.377,3.31,12.166,9.92,28.846,10.41c1.138,0.033,2.05,0.972,2.073,2.111c0.004,0.208,0.007,0.418,0.007,0.628v3.542
					c0-3.008,1.972-5.574,4.685-6.481v-9.075C169.164,31.867,151.994,14.696,130.889,14.696z"/>
			</g>
		</g>
		<g>
			<g>
				<path class="st11" d="M164.473,64.359c-0.023-1.139-0.934-2.077-2.073-2.111c-16.68-0.489-25.469-7.1-28.846-10.41
					c-0.922-0.904-2.41-0.808-3.214,0.202c-14.665,18.442-36.299,15.84-43.573,14.317c-1.322-0.276-2.59,0.72-2.591,2.07v32.326
					c0,22.083,18.068,40.151,40.151,40.151h0c22.083,0,40.151-18.068,40.151-40.151V64.987
					C164.479,64.777,164.477,64.567,164.473,64.359z"/>
			</g>
		</g>
		<g>
			<g>
				<path class="st7" d="M205.301,183.09c-0.385-6.923-5.228-12.791-11.952-14.484l-31.182-7.849l-11.021-5.434
					c-4.737-2.335-7.737-7.159-7.737-12.44v-6.834c-5.684,3.095-12.187,4.856-19.081,4.856h0c-6.429,0-12.512-1.54-17.914-4.256
					v6.234c0,5.282-3,10.105-7.737,12.44l-11.021,5.434l-31.182,7.849c-6.724,1.693-11.567,7.561-11.952,14.484l-4.439,65.76
					c-0.141,2.525,1.869,4.65,4.398,4.65h160.861c2.529,0,4.539-2.125,4.398-4.65L205.301,183.09z"/>
			</g>
		</g>
		<g>
			<g>
				<path class="st11" d="M151.146,155.323c-4.737-2.335-7.737-7.159-7.737-12.44v-6.834c-5.684,3.095-12.187,4.856-19.081,4.856h0
					c-6.429,0-12.512-1.54-17.914-4.256v6.234c0,5.282-3,10.105-7.737,12.44l-1.731,0.854c5.23,10.148,15.818,17.134,27.965,17.134
					s22.735-6.985,27.965-17.134L151.146,155.323z"/>
			</g>
		</g>
		<g>
			<g>
				<g>
					<path d="M166.972,64.31c-0.049-2.485-2.025-4.488-4.499-4.561c-16.075-0.472-24.355-6.938-27.169-9.696
						c-0.943-0.925-2.248-1.41-3.553-1.327c-1.316,0.082-2.543,0.723-3.367,1.759c-13.553,17.045-33.26,15.068-41.104,13.426
						c-1.38-0.286-2.8,0.057-3.896,0.945c-1.084,0.88-1.706,2.182-1.707,3.6v32.298c0,23.518,19.134,42.651,42.651,42.651
						s42.65-19.134,42.65-42.651V64.986C166.979,64.762,166.977,64.536,166.972,64.31z M161.979,100.753
						c0,20.761-16.89,37.651-37.65,37.651s-37.651-16.891-37.651-37.651V68.891c7.29,1.449,29.989,4.053,45.393-15.01
						c4.126,3.937,13.299,10.284,29.908,10.855c0.001,0.083,0.001,0.167,0.001,0.25V100.753z"/>
				</g>
			</g>
		</g>
		<g>
			<g>
				<path d="M180.523,199.64c-1.381,0-2.5,1.119-2.5,2.5v50.324c0,1.381,1.119,2.5,2.5,2.5s2.5-1.119,2.5-2.5V202.14
					C183.023,200.759,181.904,199.64,180.523,199.64z"/>
			</g>
		</g>
		<g>
			<g>
				<path d="M69.3,199.64c-1.381,0-2.5,1.119-2.5,2.5v50.324c0,1.381,1.119,2.5,2.5,2.5s2.5-1.119,2.5-2.5V202.14
					C71.8,200.759,70.681,199.64,69.3,199.64z"/>
			</g>
		</g>
		<g>
			<g>
				<path d="M212.234,248.683l-4.438-65.731c-0.449-8.06-6.01-14.799-13.838-16.771l-30.925-7.782l-10.783-5.317
					c-3.911-1.93-6.342-5.837-6.342-10.198v-6.173c0-1.381-1.119-2.5-2.5-2.5s-2.5,1.119-2.5,2.5v6.173
					c0,6.279,3.499,11.905,9.131,14.683L161.062,163c0.158,0.078,0.324,0.139,0.495,0.183l31.182,7.847
					c5.694,1.435,9.739,6.337,10.068,12.229l4.438,65.731c0.029,0.528-0.154,1.03-0.519,1.415c-0.363,0.384-0.854,0.596-1.383,0.596
					H44.48c-0.528,0-1.02-0.212-1.383-0.596c-0.364-0.385-0.548-0.887-0.521-1.386l4.441-65.79
					c0.327-5.862,4.372-10.765,10.066-12.198l31.182-7.848c0.171-0.044,0.337-0.104,0.495-0.183l11.021-5.435
					c5.632-2.777,9.131-8.403,9.131-14.683v-5.591c0-1.381-1.119-2.5-2.5-2.5s-2.5,1.119-2.5,2.5v5.591
					c0,4.361-2.43,8.269-6.342,10.198l-10.783,5.317l-30.925,7.783c-7.828,1.971-13.389,8.71-13.836,16.74l-4.441,65.79
					c-0.105,1.886,0.579,3.755,1.878,5.128c1.298,1.373,3.126,2.16,5.016,2.16h160.862c1.89,0,3.718-0.787,5.016-2.16
					C211.657,252.467,212.342,250.598,212.234,248.683z"/>
			</g>
		</g>
		<g>
			<g>
				<path d="M153.624,154.862c-1.204-0.671-2.729-0.235-3.399,0.972c-5.133,9.237-14.833,14.977-25.313,14.977
					c-10.493,0-20.198-5.75-25.329-15.006c-0.671-1.209-2.192-1.644-3.398-0.975c-1.208,0.669-1.644,2.191-0.975,3.398
					c6.012,10.845,17.393,17.582,29.702,17.582c12.295,0,23.67-6.725,29.685-17.549
					C155.266,157.056,154.831,155.533,153.624,154.862z"/>
			</g>
		</g>
		<g>
			<g>
				<path d="M106.62,80.788c-5.021,0-9.105,4.085-9.105,9.105c0,1.381,1.119,2.5,2.5,2.5s2.5-1.119,2.5-2.5
					c0-2.264,1.842-4.105,4.105-4.105s4.105,1.842,4.105,4.105c0,1.381,1.119,2.5,2.5,2.5s2.5-1.119,2.5-2.5
					C115.726,84.873,111.641,80.788,106.62,80.788z"/>
			</g>
		</g>
		<g>
			<g>
				<path d="M143.203,80.788c-5.021,0-9.105,4.085-9.105,9.105c0,1.381,1.119,2.5,2.5,2.5s2.5-1.119,2.5-2.5
					c0-2.264,1.842-4.105,4.105-4.105s4.105,1.842,4.105,4.105c0,1.381,1.119,2.5,2.5,2.5s2.5-1.119,2.5-2.5
					C152.309,84.873,148.224,80.788,143.203,80.788z"/>
			</g>
		</g>
		<g>
			<g>
				<path d="M138.931,111.357c-0.617-1.234-2.12-1.731-3.355-1.115c-3.078,1.543-6.766,2.358-10.663,2.358
					c-3.898,0-7.586-0.815-10.664-2.358c-1.232-0.616-2.736-0.12-3.355,1.115c-0.618,1.234-0.119,2.736,1.115,3.355
					c3.77,1.889,8.231,2.888,12.904,2.888c4.672,0,9.134-0.999,12.903-2.888C139.05,114.094,139.549,112.592,138.931,111.357z"/>
			</g>
		</g>
		<g>
			<g>
				<path d="M171.871,59.194h-0.558c-5.147,0-9.335,4.188-9.335,9.334c0,1.381,1.119,2.5,2.5,2.5s2.5-1.119,2.5-2.5
					c0-2.39,1.944-4.334,4.335-4.334h0.558c2.39,0,4.334,1.944,4.334,4.334v35.109c0,2.39-1.944,4.334-4.334,4.334h-0.558
					c-2.391,0-4.335-1.944-4.335-4.334v-3.055c0-1.381-1.119-2.5-2.5-2.5s-2.5,1.119-2.5,2.5v3.055c0,5.146,4.188,9.334,9.335,9.334
					h0.558c5.146,0,9.334-4.188,9.334-9.334V68.528C181.205,63.382,177.018,59.194,171.871,59.194z"/>
			</g>
		</g>
		<g>
			<g>
				<path d="M189.545,70.164c-2.817-2.833-6.342-4.872-10.193-5.897c-1.328-0.353-2.703,0.438-3.059,1.773
					c-0.355,1.334,0.438,2.703,1.773,3.059c2.996,0.798,5.739,2.385,7.932,4.59c1.169,1.177,1.84,2.887,1.84,4.69v15.392
					c0,1.86-0.756,3.659-2.074,4.938c-2.133,2.067-4.796,3.568-7.7,4.342c-1.335,0.355-2.129,1.725-1.773,3.059
					c0.298,1.119,1.309,1.858,2.414,1.858c0.213,0,0.43-0.027,0.645-0.085c3.729-0.992,7.15-2.923,9.896-5.584
					c2.284-2.214,3.594-5.322,3.594-8.527V78.379C192.838,75.265,191.638,72.271,189.545,70.164z"/>
			</g>
		</g>
		<g>
			<g>
				<path d="M84.177,96.502c-1.381,0-2.5,1.119-2.5,2.5v4.636c0,2.39-1.944,4.334-4.334,4.334h-0.559
					c-2.39,0-4.334-1.944-4.334-4.334V68.528c0-2.39,1.944-4.334,4.334-4.334h0.559c2.39,0,4.334,1.944,4.334,4.334
					c0,1.381,1.119,2.5,2.5,2.5s2.5-1.119,2.5-2.5c0-5.146-4.188-9.334-9.334-9.334h-0.559c-5.146,0-9.334,4.188-9.334,9.334v35.109
					c0,5.146,4.188,9.334,9.334,9.334h0.559c5.146,0,9.334-4.188,9.334-9.334v-4.636C86.677,97.621,85.558,96.502,84.177,96.502z"/>
			</g>
		</g>
		<g>
			<g>
				<path d="M70.277,102.964c-2.78-0.795-5.334-2.267-7.386-4.256c-1.318-1.278-2.074-3.077-2.074-4.938V78.379
					c0-1.804,0.671-3.514,1.841-4.689c2.15-2.164,4.838-3.736,7.771-4.548c1.331-0.367,2.111-1.744,1.743-3.075
					c-0.367-1.331-1.742-2.118-3.075-1.743c-3.77,1.041-7.222,3.062-9.984,5.841c-2.094,2.105-3.295,5.1-3.295,8.215v15.392
					c0,3.205,1.31,6.313,3.594,8.527c2.641,2.561,5.923,4.453,9.491,5.473c0.229,0.066,0.461,0.098,0.688,0.098
					c1.088,0,2.089-0.716,2.402-1.813C72.373,104.727,71.604,103.343,70.277,102.964z"/>
			</g>
		</g>
		<g>
			<g>
				<path d="M130.889,12.196h-13.986c-22.484,0-40.776,18.292-40.776,40.776v7.967c0,1.381,1.119,2.5,2.5,2.5s2.5-1.119,2.5-2.5
					v-7.967c0-19.728,16.049-35.776,35.776-35.776h13.986c19.727,0,35.775,16.049,35.775,35.776v8.466c0,1.381,1.119,2.5,2.5,2.5
					s2.5-1.119,2.5-2.5v-8.466C171.664,30.488,153.372,12.196,130.889,12.196z"/>
			</g>
		</g>
		<g>
			<g>
				<path d="M130.889,0.002h-13.986c-29.208,0-52.97,23.763-52.97,52.971v14.586c0,1.381,1.119,2.5,2.5,2.5s2.5-1.119,2.5-2.5
					V52.973c0-26.451,21.52-47.971,47.97-47.971h13.986c26.45,0,47.97,21.52,47.97,47.971v13.989c0,1.381,1.119,2.5,2.5,2.5
					s2.5-1.119,2.5-2.5V52.973C183.858,23.765,160.097,0.002,130.889,0.002z"/>
			</g>
		</g>
		<g>
			<g>
				<path d="M217.817,104.838c-2.76-2.766-7.481-6.063-14.31-6.063c-1.381,0-2.5,1.119-2.5,2.5v28.173c0,1.381,1.119,2.5,2.5,2.5
					s2.5-1.119,2.5-2.5v-25.466c3.796,0.64,6.538,2.651,8.269,4.388c0.978,0.977,2.559,0.979,3.536,0.005
					C218.79,107.398,218.792,105.815,217.817,104.838z"/>
			</g>
		</g>
		<g>
			<g>
				<g>
					<path d="M195.736,119.176c-5.664,0-10.271,4.607-10.271,10.271s4.607,10.271,10.271,10.271s10.271-4.607,10.271-10.271
						S201.4,119.176,195.736,119.176z M195.736,134.719c-2.906,0-5.271-2.365-5.271-5.271s2.365-5.271,5.271-5.271
						s5.271,2.365,5.271,5.271S198.643,134.719,195.736,134.719z"/>
				</g>
			</g>
		</g>
		<g>
			<g>
				<path d="M232.164,57.952c-0.586-0.476-1.355-0.661-2.09-0.505l-17.657,3.718c-1.157,0.243-1.985,1.264-1.985,2.446v21.325
					c0,1.381,1.119,2.5,2.5,2.5s2.5-1.119,2.5-2.5V65.64l12.657-2.665V81.22c0,1.381,1.119,2.5,2.5,2.5s2.5-1.119,2.5-2.5V59.894
					C233.089,59.141,232.749,58.427,232.164,57.952z"/>
			</g>
		</g>
		<g>
			<g>
				<g>
					<path d="M207.818,77.323c-4.198,0-7.614,3.415-7.614,7.613s3.416,7.614,7.614,7.614s7.613-3.416,7.613-7.614
						S212.017,77.323,207.818,77.323z M207.818,87.551c-1.441,0-2.614-1.173-2.614-2.614s1.173-2.613,2.614-2.613
						s2.613,1.172,2.613,2.613S209.26,87.551,207.818,87.551z"/>
				</g>
			</g>
		</g>
		<g>
			<g>
				<g>
					<path d="M225.475,73.605c-4.198,0-7.614,3.416-7.614,7.614s3.416,7.613,7.614,7.613s7.614-3.415,7.614-7.613
						S229.673,73.605,225.475,73.605z M225.475,83.833c-1.441,0-2.614-1.172-2.614-2.613s1.173-2.614,2.614-2.614
						s2.614,1.173,2.614,2.614S226.916,83.833,225.475,83.833z"/>
				</g>
			</g>
		</g>
	</g>
</g>
</svg>
